<svg xmlns="http://www.w3.org/2000/svg" width="56" height="32"><path fill="#afb1b8" d="M14.036 23.468a.749.749 0 0 1 .192.513c.007.121-.017.243-.069.355s-.13.212-.23.293a1.37 1.37 0 0 1-.866.236H11.54v-3.248h1.492c.295-.018.587.058.827.216.096.074.173.167.223.273s.073.22.067.335a.714.714 0 0 1-.173.497.83.83 0 0 1-.454.254.888.888 0 0 1 .515.278zm-1.786-.491h.638a.644.644 0 0 0 .405-.108c.048-.04.085-.089.109-.144s.033-.114.028-.173c.005-.059-.005-.118-.029-.173s-.06-.104-.107-.145a.65.65 0 0 0-.418-.109h-.627v.852zm1.105 1.246c.051-.041.091-.092.118-.149s.037-.119.033-.181c.004-.063-.008-.125-.035-.183s-.068-.109-.12-.15a.699.699 0 0 0-.433-.117h-.669v.893h.678a.72.72 0 0 0 .428-.113zM17.086 24.864l-.83-1.269h-.312v1.269h-.714v-3.248h1.352c.341-.022.678.077.941.276.189.176.303.409.321.655s-.06.491-.221.689a1.13 1.13 0 0 1-.645.33l.884 1.298h-.776zm-1.142-1.712h.584c.405 0 .608-.164.608-.492.004-.067-.007-.134-.033-.197s-.065-.12-.116-.168a.67.67 0 0 0-.459-.132h-.591l.007.988zM20.989 24.21h-1.423l-.251.654h-.749l1.307-3.212h.809l1.301 3.212h-.749l-.246-.654zm-.191-.492-.52-1.371-.52 1.371h1.04zM25.874 24.864h-.709l-1.589-2.209v2.209h-.707v-3.248h.707l1.589 2.221v-2.221h.709v3.248zM29.919 24.087c-.147.245-.37.445-.641.573a2.248 2.248 0 0 1-.996.205H27.02v-3.248h1.262c.345-.008.687.06.996.2.271.125.495.323.641.566.146.264.222.556.222.852s-.076.588-.222.852zm-.811-.078c.202-.216.314-.491.314-.775s-.111-.559-.314-.775a1.304 1.304 0 0 0-.887-.276h-.492v2.102h.492c.324.019.643-.081.887-.276zM21.433 3.55s9.148 3.162 8.954 7.738v7.74s-9.141-3.164-8.951-7.74l-.003-7.738zM38.537 17.216a13.261 13.261 0 0 1 5.812-1.961v-2.423c-2.404.848-4.443 2.386-5.812 4.384z"/><path fill="#afb1b8" d="M37.499 17.946c1.414-2.607 3.866-4.619 6.85-5.622V5.343S31.321 9.848 31.596 16.364v11.02s.581-.201 1.494-.579c0-.352 0-.708.042-1.065.27-3.025 1.84-5.829 4.367-7.794z"/><path fill="#afb1b8" d="M36.26 22.04c.068-.764.221-1.52.456-2.256-1.573 1.697-2.526 3.803-2.724 6.022-.019.209-.029.419-.035.635.74-.325 1.601-.732 2.506-1.209a10.47 10.47 0 0 1-.203-3.191zM36.778 22.079a9.974 9.974 0 0 0 .161 2.889c3.559-1.95 7.559-4.963 7.405-8.605v-.317c-2.543.261-4.922 1.278-6.772 2.897a10.104 10.104 0 0 0-.794 3.135z"/></svg>